<svg xmlns="http://www.w3.org/2000/svg" enable-background="new 0 0 64 64" viewBox="0 0 64 64" id="certificate"><linearGradient id="a" x1="4" x2="60" y1="35" y2="35" gradientUnits="userSpaceOnUse"><stop offset=".002" stop-color="#905fb7"></stop><stop offset="1" stop-color="#592575"></stop></linearGradient><path fill="url(#a)" d="M56,56H8c-2.2,0-4-1.8-4-4V18c0-2.2,1.8-4,4-4h48c2.2,0,4,1.8,4,4v34C60,54.2,58.2,56,56,56z"></path><path fill="#fff" d="M56,13.7H8.3C5.9,13.7,4,15.6,4,18v4c0-2.4,1.6-5,4-5h47.8c2.2,0,4.2,1.8,4.2,4v-3.3
			C60,15.5,58.2,13.7,56,13.7z" opacity=".8"></path><path fill="#fff" d="M10,17l39,39h6.5c1.2,0,2.4-0.5,3.2-1.3L21,17H10z" opacity=".3"></path><polygon fill="#fff" points="26 17 60 51 60 48 29 17" opacity=".3"></polygon><path fill="#fff" d="M38 31H25c-.6 0-1-.4-1-1s.4-1 1-1h13c.6 0 1 .4 1 1S38.6 31 38 31zM40 39H25c-.6 0-1-.4-1-1s.4-1 1-1h15c.6 0 1 .4 1 1S40.6 39 40 39zM35 47H25c-.6 0-1-.4-1-1s.4-1 1-1h10c.6 0 1 .4 1 1S35.6 47 35 47zM14 33c-.3 0-.5-.1-.7-.3l-2-2c-.4-.4-.4-1 0-1.4s1-.4 1.4 0l1.3 1.3 3.3-3.3c.4-.4 1-.4 1.4 0s.4 1 0 1.4l-4 4C14.5 32.9 14.3 33 14 33zM14 40c-.3 0-.5-.1-.7-.3l-2-2c-.4-.4-.4-1 0-1.4s1-.4 1.4 0l1.3 1.3 3.3-3.3c.4-.4 1-.4 1.4 0s.4 1 0 1.4l-4 4C14.5 39.9 14.3 40 14 40zM14 49c-1.7 0-3-1.3-3-3s1.3-3 3-3 3 1.3 3 3S15.7 49 14 49zM14 45c-.6 0-1 .4-1 1s.4 1 1 1 1-.4 1-1S14.6 45 14 45z"></path><linearGradient id="b" x1="40" x2="60" y1="17" y2="17" gradientUnits="userSpaceOnUse"><stop offset="0" stop-color="#fff383"></stop><stop offset="1" stop-color="#fcee21"></stop></linearGradient><path fill="url(#b)" d="M51,7.6l1.2,2.1c0.3,0.5,0.8,0.7,1.3,0.5l2.4-0.7c0.9-0.2,1.7,0.6,1.4,1.4l-0.7,2.4c-0.1,0.5,0.1,1.1,0.5,1.3
			l2.1,1.2c0.8,0.4,0.8,1.6,0,2l-2.1,1.2c-0.5,0.3-0.7,0.8-0.5,1.3l0.7,2.4c0.2,0.9-0.6,1.7-1.4,1.4l-2.4-0.7
			c-0.5-0.1-1.1,0.1-1.3,0.5L51,26.4c-0.4,0.8-1.6,0.8-2,0l-1.2-2.1c-0.3-0.5-0.8-0.7-1.3-0.5l-2.4,0.7c-0.9,0.2-1.7-0.6-1.4-1.4
			l0.7-2.4c0.1-0.5-0.1-1.1-0.5-1.3L40.6,18c-0.8-0.4-0.8-1.6,0-2l2.1-1.2c0.5-0.3,0.7-0.8,0.5-1.3l-0.7-2.4
			c-0.2-0.9,0.6-1.7,1.4-1.4l2.4,0.7c0.5,0.1,1.1-0.1,1.3-0.5L49,7.6C49.4,6.8,50.6,6.8,51,7.6z"></path><linearGradient id="c" x1="45" x2="55" y1="28.86" y2="28.86" gradientUnits="userSpaceOnUse"><stop offset="0" stop-color="#fff383"></stop><stop offset="1" stop-color="#fcee21"></stop></linearGradient><path fill="url(#c)" d="M45,25v7.8c0,1.1,1.3,1.6,2,0.8l1.4-1.4c0.9-0.9,2.3-0.9,3.2,0l1.4,1.4c0.7,0.7,2,0.2,2-0.8V25c0,0-2-2-3-1
			s-2,4-3,3s-2-4-3-3S45,25,45,25z"></path><path fill="#f4b33b" d="M52.9,23.7C52,24,51.3,26.9,50,27c-1.3-0.1-2-3-2.9-3.3c-0.9-0.3-2.8,0.4-2.8,0.4l0.7,2c2-0.4,1,3.7,5,3.7
			s3-4.1,5-3.7l0.7-2C55.7,24.1,53.8,23.4,52.9,23.7z" opacity=".7"></path><circle cx="50" cy="17" r="4" fill="#fff"></circle><circle cx="10" cy="20" r="1" fill="#3c154e"></circle><circle cx="14" cy="20" r="1" fill="#3c154e"></circle><circle cx="18" cy="20" r="1" fill="#3c154e"></circle><path fill="#3c154e" d="M59.9,15.1l-2.1-1.2c-0.1,0-0.1-0.1-0.1-0.2l0.7-2.4c0.2-0.8,0-1.6-0.6-2.1c-0.6-0.6-1.3-0.8-2.1-0.6
				l-2.4,0.7c-0.1,0-0.2,0-0.2-0.1l-1.2-2.1C51.5,6.4,50.8,6,50,6s-1.5,0.4-1.9,1.1l-1.2,2.1c0,0.1-0.1,0.1-0.2,0.1l-2.4-0.7
				c-0.8-0.2-1.6,0-2.1,0.6c-0.6,0.6-0.8,1.3-0.6,2.1l0.5,1.7H8c-2.8,0-5,2.2-5,5v34c0,2.8,2.2,5,5,5h48c2.8,0,5-2.2,5-5V17
				C61,16.2,60.6,15.5,59.9,15.1z M43.6,10.6c0,0,0.1-0.1,0.2,0l2.4,0.7c1,0.3,2-0.2,2.5-1l1.2-2.1c0.1-0.1,0.2-0.1,0.3,0
				c0,0,0,0,0,0l1.2,2.1c0.5,0.9,1.5,1.3,2.5,1l2.4-0.7c0.1,0,0.1,0,0.2,0c0,0,0.1,0.1,0,0.2l-0.7,2.4c-0.3,1,0.2,2,1,2.5l2.1,1.2
				c0.1,0,0.1,0.1,0.1,0.1s0,0.1-0.1,0.1l-2.1,1.2c-0.9,0.5-1.3,1.5-1,2.5l0.7,2.4c0,0.1,0,0.1,0,0.2c0,0-0.1,0.1-0.2,0l-2.4-0.7
				c-1-0.3-2,0.2-2.5,1l-1.2,2.1c-0.1,0.1-0.2,0.1-0.3,0l-1.2-2.1c-0.4-0.7-1.1-1.1-1.9-1.1c-0.2,0-0.4,0-0.6,0.1l-2.4,0.7
				c-0.1,0-0.1,0-0.2,0c0,0-0.1-0.1,0-0.2l0.7-2.4c0.3-1-0.2-2-1-2.5l-2.1-1.2C41,17.1,41,17.1,41,17s0-0.1,0.1-0.1l2.1-1.2
				c0.9-0.5,1.3-1.5,1-2.5l-0.7-2.4C43.6,10.7,43.6,10.7,43.6,10.6z M46,24.9l0.7-0.2c0.1,0,0.2,0,0.2,0.1l1.2,2.1
				c0.4,0.7,1.1,1.1,1.9,1.1s1.5-0.4,1.9-1.1l1.2-2.1c0-0.1,0.1-0.1,0.2-0.1l0.7,0.2c0,0,0,0.1,0,0.1v7.8c0,0,0,0.1-0.1,0.2
				c-0.1,0-0.2,0-0.2,0l-1.4-1.4c-1.3-1.3-3.3-1.3-4.6,0l-1.4,1.4c0,0-0.1,0.1-0.2,0c-0.1,0-0.1-0.1-0.1-0.2V25
				C46,25,46,24.9,46,24.9z M56,55H8c-1.7,0-3-1.3-3-3V18c0-1.7,1.3-3,3-3h32.3l-0.2,0.1C39.4,15.5,39,16.2,39,17s0.4,1.5,1.1,1.9
				l2.1,1.2c0.1,0,0.1,0.1,0.1,0.2l-0.7,2.4c-0.2,0.8,0,1.6,0.6,2.1c0.5,0.5,1.1,0.7,1.8,0.6v7.4c0,0.9,0.5,1.7,1.4,2
				c0.8,0.3,1.8,0.2,2.4-0.5l1.4-1.4c0.5-0.5,1.3-0.5,1.8,0l1.4,1.4c0.4,0.4,1,0.6,1.5,0.6c0.3,0,0.6-0.1,0.8-0.2
				c0.8-0.3,1.4-1.1,1.4-2v-7.4c0.7,0.1,1.3-0.1,1.8-0.6c0.6-0.6,0.8-1.3,0.6-2.1l-0.7-2.4c0-0.1,0-0.2,0.1-0.2l1.2-0.7V52
				C59,53.7,57.7,55,56,55z"></path><path fill="#3c154e" d="M50,22c2.8,0,5-2.2,5-5s-2.2-5-5-5s-5,2.2-5,5S47.2,22,50,22z M50,14c1.7,0,3,1.3,3,3s-1.3,3-3,3
				s-3-1.3-3-3S48.3,14,50,14z"></path></svg>