<svg xmlns="http://www.w3.org/2000/svg" enable-background="new 0 0 64 64" viewBox="0 0 64 64" id="binary-program"><path d="M63.49,2.69c-0.45-0.6-1.17-0.98-1.98-0.98H2.49C1.12,1.7,0,2.83,0,4.2v42.97c0,1.38,1.12,2.49,2.49,2.49h23.82v5.2
		c-3.61,0.26-6.47,3.27-6.47,6.94c0,0.28,0.22,0.49,0.49,0.49h23.63c0.27,0,0.49-0.22,0.49-0.49c0-3.67-2.87-6.69-6.47-6.94v-5.2
		h23.52c0.81,0,1.53-0.38,1.98-0.98C63.8,48.27,64,47.74,64,47.17V4.2C64,3.63,63.8,3.11,63.49,2.69z M43.45,61.31H20.84
		c0.25-3.07,2.83-5.48,5.96-5.48h10.69C40.62,55.83,43.2,58.24,43.45,61.31z M27.29,54.84v-5.18H37v5.18H27.29z M63.02,47.17
		c0,0.84-0.68,1.51-1.51,1.51H2.49c-0.83,0-1.51-0.67-1.51-1.51v-5.39h62.03V47.17z M63.02,40.8H0.98V4.2
		c0-0.84,0.68-1.52,1.51-1.52h59.02c0.83,0,1.51,0.68,1.51,1.52V40.8z"></path><path fill="#666" d="M43.45 61.31H20.84c.25-3.07 2.83-5.48 5.96-5.48h10.69C40.62 55.83 43.2 58.24 43.45 61.31zM4.3 41.79v5.39c0 .84.68 1.51 1.51 1.51h55.7c.83 0 1.51-.67 1.51-1.51v-5.39H4.3zM32 47.34c-1.08 0-1.97-.89-1.97-1.97 0-1.09.89-1.97 1.97-1.97.7 0 1.31.35 1.66.91.2.31.31.67.31 1.06 0 .39-.11.76-.31 1.06C33.31 46.98 32.7 47.34 32 47.34z"></path><path fill="#5b5b5a" d="M5.81,48.68H2.49c-0.83,0-1.51-0.67-1.51-1.51v-5.39H4.3v5.39C4.3,48.01,4.98,48.68,5.81,48.68z"></path><path fill="#dbe2eb" d="M61.51,2.69H5.81C4.98,2.69,4.3,3.37,4.3,4.2v36.6h58.71V4.2C63.02,3.37,62.34,2.69,61.51,2.69z M47.76,24.02
		c0,0.36-0.3,0.66-0.65,0.66h-2.27c-0.32,1.41-0.88,2.75-1.64,3.97l1.6,1.6c0.26,0.26,0.26,0.67,0,0.93l-3.22,3.22
		c-0.26,0.26-0.67,0.26-0.93,0l-1.6-1.6c-1.23,0.77-2.56,1.32-3.98,1.64v2.27c0,0.36-0.29,0.65-0.65,0.65h-4.56
		c-0.35,0-0.65-0.29-0.65-0.65v-2.27c-0.27-0.06-0.54-0.13-0.81-0.22c-0.6-0.18-1.19-0.39-1.75-0.67c-0.16-0.07-0.32-0.14-0.47-0.23
		c-0.32-0.16-0.64-0.33-0.95-0.53l-1.6,1.6c-0.26,0.26-0.67,0.26-0.93,0.01l-3.22-3.23c-0.26-0.26-0.26-0.67,0-0.93l1.6-1.6
		c-0.77-1.22-1.32-2.56-1.64-3.97h-2.27c-0.35,0-0.65-0.3-0.65-0.66v-4.56c0-0.35,0.3-0.65,0.65-0.65h2.27
		c0.32-1.41,0.88-2.75,1.64-3.97l-1.6-1.6c-0.13-0.13-0.19-0.3-0.19-0.47c0-0.17,0.07-0.33,0.19-0.46l3.22-3.22
		c0.26-0.26,0.68-0.25,0.93,0l1.6,1.6c0.31-0.19,0.62-0.37,0.95-0.53c0.16-0.09,0.32-0.16,0.47-0.23c0.56-0.28,1.15-0.49,1.75-0.67
		c0.27-0.09,0.54-0.16,0.81-0.22V6.78c0-0.36,0.3-0.66,0.65-0.66h4.56c0.36,0,0.65,0.3,0.65,0.66v2.26
		c1.42,0.32,2.75,0.88,3.98,1.64l1.6-1.6c0.26-0.26,0.67-0.26,0.93,0l3.22,3.23c0.13,0.12,0.2,0.29,0.2,0.45
		c0,0.18-0.07,0.34-0.2,0.47l-1.6,1.6c0.77,1.22,1.32,2.56,1.64,3.97h2.27c0.35,0,0.65,0.3,0.65,0.65V24.02z"></path><path fill="#aeb7c1" d="M5.81,2.69C4.98,2.69,4.3,3.37,4.3,4.2v36.6H0.98V4.2c0-0.84,0.68-1.52,1.51-1.52H5.81z"></path><path d="M32,43.4c-1.08,0-1.97,0.88-1.97,1.97c0,1.08,0.89,1.97,1.97,1.97c1.09,0,1.97-0.89,1.97-1.97
		C33.97,44.28,33.09,43.4,32,43.4z M32,46.36c-0.54,0-0.98-0.44-0.98-0.98s0.44-0.98,0.98-0.98s0.98,0.44,0.98,0.98
		S32.54,46.36,32,46.36z"></path><circle cx="32" cy="45.37" r=".98" fill="#dbe2eb"></circle><path d="M29.38,22.27c-1.33,0-2.42,1.31-2.42,2.9c0,1.6,1.09,2.9,2.42,2.9c1.33,0,2.42-1.3,2.42-2.9
		C31.8,23.58,30.71,22.27,29.38,22.27z M29.38,27.1c-0.79,0-1.44-0.86-1.44-1.92c0-1.05,0.65-1.92,1.44-1.92
		c0.79,0,1.44,0.87,1.44,1.92C30.82,26.24,30.17,27.1,29.38,27.1z"></path><ellipse cx="29.38" cy="25.18" fill="#dbe2eb" rx="1.44" ry="1.92"></ellipse><path d="M32.49 15.42c-1.33 0-2.41 1.3-2.41 2.9 0 1.6 1.08 2.9 2.41 2.9 1.34 0 2.42-1.31 2.42-2.9C34.91 16.72 33.83 15.42 32.49 15.42zM32.49 20.24c-.79 0-1.43-.87-1.43-1.92 0-1.06.64-1.92 1.43-1.92.8 0 1.44.86 1.44 1.92C33.93 19.38 33.29 20.24 32.49 20.24zM28.97 16.07v4.67c0 .27-.22.49-.49.49s-.49-.23-.49-.49v-3.98l-.77.28c-.26.09-.53-.05-.63-.3-.09-.27.05-.54.31-.63l1.42-.5c.16-.06.32-.03.45.06C28.89 15.75 28.97 15.91 28.97 16.07zM34.41 22.84v4.67c0 .28-.22.49-.49.49-.28 0-.49-.22-.49-.49v-3.97l-.77.27c-.26.1-.54-.04-.63-.3-.09-.26.05-.54.31-.63l1.42-.5c.16-.05.32-.03.45.06C34.33 22.54 34.41 22.69 34.41 22.84zM37.73 22.84v4.67c0 .28-.23.49-.49.49-.28 0-.49-.22-.49-.49v-3.97l-.77.27c-.26.1-.54-.04-.63-.3s.04-.54.3-.63l1.43-.5c.15-.05.32-.03.45.06C37.65 22.54 37.73 22.69 37.73 22.84zM37.73 16.07v4.67c0 .27-.23.49-.49.49-.28 0-.49-.23-.49-.49v-3.98l-.77.28c-.26.09-.54-.05-.63-.3-.09-.27.04-.54.3-.63l1.43-.5c.15-.06.32-.03.45.06C37.65 15.75 37.73 15.91 37.73 16.07z"></path><path d="M47.11,18.82h-2.27c-0.32-1.41-0.88-2.75-1.64-3.97l1.6-1.6c0.13-0.13,0.2-0.3,0.2-0.47c0-0.17-0.07-0.33-0.2-0.45
		l-3.22-3.23c-0.26-0.26-0.67-0.26-0.93,0l-1.6,1.6c-1.23-0.77-2.56-1.32-3.98-1.64V6.78c0-0.36-0.29-0.66-0.65-0.66h-4.56
		c-0.35,0-0.65,0.3-0.65,0.66v2.26c-0.27,0.06-0.54,0.13-0.81,0.22c-0.6,0.18-1.19,0.39-1.75,0.67c-0.16,0.07-0.32,0.14-0.47,0.23
		c-0.32,0.16-0.64,0.34-0.95,0.53l-1.6-1.6c-0.25-0.25-0.67-0.26-0.93,0l-3.22,3.22c-0.12,0.13-0.19,0.3-0.19,0.46
		c0,0.18,0.06,0.34,0.19,0.47l1.6,1.6c-0.77,1.22-1.32,2.56-1.64,3.97h-2.27c-0.35,0-0.65,0.3-0.65,0.65v4.56
		c0,0.36,0.3,0.66,0.65,0.66h2.27c0.32,1.41,0.88,2.75,1.64,3.97l-1.6,1.6c-0.26,0.26-0.26,0.67,0,0.93l3.22,3.23
		c0.26,0.25,0.67,0.25,0.93-0.01l1.6-1.6c0.31,0.2,0.62,0.37,0.95,0.53c0.16,0.09,0.32,0.16,0.47,0.23
		c0.56,0.28,1.15,0.49,1.75,0.67c0.27,0.09,0.54,0.16,0.81,0.22v2.27c0,0.36,0.3,0.65,0.65,0.65h4.56c0.36,0,0.65-0.29,0.65-0.65
		v-2.27c1.42-0.32,2.75-0.88,3.98-1.64l1.6,1.6c0.26,0.26,0.67,0.26,0.93,0l3.22-3.22c0.26-0.26,0.26-0.67,0-0.93l-1.6-1.6
		c0.77-1.22,1.32-2.56,1.64-3.97h2.27c0.35,0,0.65-0.3,0.65-0.66v-4.56C47.76,19.11,47.47,18.82,47.11,18.82z M46.78,23.7h-2.21
		c-0.32,0-0.58,0.22-0.64,0.51c-0.31,1.48-0.89,2.87-1.71,4.14c-0.17,0.26-0.13,0.59,0.09,0.82l1.57,1.56l-2.76,2.76l-1.57-1.57
		c-0.22-0.22-0.55-0.25-0.82-0.08c-1.26,0.83-2.65,1.4-4.13,1.7c-0.3,0.07-0.52,0.33-0.52,0.64v2.21H30.2v-2.21
		c0-0.31-0.22-0.57-0.52-0.64c-1.48-0.31-2.87-0.88-4.13-1.7c-0.26-0.17-0.6-0.14-0.82,0.08l-1.57,1.57l-2.76-2.76l1.57-1.57
		c0.22-0.22,0.26-0.55,0.09-0.81c-0.83-1.27-1.41-2.65-1.71-4.14c-0.06-0.3-0.32-0.51-0.64-0.51h-2.21v-3.9h2.21
		c0.32,0,0.58-0.22,0.64-0.52c0.31-1.48,0.89-2.87,1.71-4.13c0.17-0.26,0.13-0.6-0.09-0.82l-1.57-1.56l2.76-2.76l1.57,1.56
		c0.22,0.22,0.56,0.26,0.82,0.09c1.26-0.83,2.65-1.4,4.13-1.71c0.31-0.06,0.52-0.32,0.52-0.63V7.11h3.89v2.22
		c0,0.31,0.23,0.57,0.52,0.63c1.48,0.32,2.87,0.89,4.13,1.71c0.27,0.17,0.6,0.13,0.82-0.09l1.57-1.56l2.76,2.76l-1.57,1.56
		c-0.22,0.22-0.26,0.56-0.08,0.82c0.82,1.26,1.4,2.65,1.7,4.13c0.06,0.31,0.32,0.52,0.64,0.52h2.21V23.7z"></path><path fill="#4fa4d1" d="M42.8,20.08c-0.27,0-0.49-0.19-0.54-0.44c-0.27-1.27-0.77-2.46-1.47-3.54c-0.15-0.22-0.12-0.51,0.07-0.7
		l1.34-1.33l-2.36-2.37l-1.34,1.34c-0.19,0.19-0.47,0.22-0.7,0.08c-1.08-0.71-2.27-1.2-3.54-1.48c-0.25-0.05-0.44-0.28-0.44-0.53
		V9.2h-3.34v1.9c0,0.26-0.19,0.48-0.44,0.53c-1.27,0.28-2.46,0.77-3.54,1.48c-0.22,0.14-0.51,0.11-0.7-0.08l-1.34-1.34l-2.36,2.37
		l1.34,1.33c0.19,0.19,0.22,0.48,0.08,0.7c-0.71,1.08-1.21,2.27-1.48,3.54c-0.05,0.26-0.28,0.44-0.54,0.44h-1.89v3.35h1.89
		c0.27,0,0.49,0.19,0.54,0.43c0.27,1.28,0.77,2.46,1.48,3.55c0.14,0.22,0.11,0.5-0.08,0.69l-1.34,1.34l2.36,2.36l1.34-1.34
		c0.19-0.19,0.48-0.21,0.7-0.07c1.08,0.71,2.27,1.2,3.54,1.47c0.26,0.06,0.44,0.29,0.44,0.54v1.89h3.34V32.4
		c0-0.26,0.2-0.48,0.44-0.54c1.27-0.27,2.46-0.76,3.54-1.47c0.23-0.14,0.51-0.12,0.7,0.07l1.34,1.34l2.36-2.36l-1.34-1.33
		c-0.19-0.2-0.22-0.48-0.08-0.7c0.71-1.09,1.21-2.28,1.48-3.55c0.05-0.25,0.28-0.43,0.54-0.43h1.89v-3.35H42.8z M32.15,31.75
		c-5.52,0-10.01-4.49-10.01-10c0-5.52,4.49-10.01,10.01-10.01c5.51,0,10,4.49,10,10.01C42.15,27.26,37.66,31.75,32.15,31.75z"></path><path fill="#378aaf" d="M44.57,19.8c-0.32,0-0.58-0.22-0.64-0.52c-0.31-1.48-0.89-2.87-1.7-4.13c-0.18-0.26-0.14-0.6,0.08-0.82
		l1.57-1.56l-2.76-2.76l-1.57,1.56c-0.22,0.22-0.55,0.26-0.82,0.09c-1.26-0.83-2.65-1.4-4.13-1.71c-0.3-0.06-0.52-0.32-0.52-0.63
		V7.11H30.2v2.22c0,0.31-0.22,0.57-0.52,0.63c-1.48,0.32-2.87,0.89-4.13,1.71c-0.26,0.17-0.6,0.13-0.82-0.09l-1.57-1.56l-2.76,2.76
		l1.57,1.56c0.22,0.22,0.26,0.56,0.09,0.82c-0.83,1.26-1.41,2.65-1.71,4.13c-0.06,0.31-0.32,0.52-0.64,0.52h-2.21v3.9h2.21
		c0.32,0,0.58,0.22,0.64,0.51c0.31,1.49,0.89,2.87,1.71,4.14c0.17,0.26,0.13,0.59-0.09,0.81l-1.57,1.57l2.76,2.76l1.57-1.57
		c0.22-0.22,0.56-0.25,0.82-0.08c1.26,0.83,2.65,1.4,4.13,1.7c0.31,0.07,0.52,0.33,0.52,0.64v2.21h3.89v-2.21
		c0-0.31,0.23-0.57,0.52-0.64c1.48-0.31,2.87-0.88,4.13-1.7c0.27-0.17,0.6-0.14,0.82,0.08l1.57,1.57l2.76-2.76l-1.57-1.56
		c-0.22-0.23-0.26-0.56-0.09-0.82c0.83-1.27,1.41-2.66,1.71-4.14c0.06-0.3,0.32-0.51,0.64-0.51h2.21v-3.9H44.57z M44.69,23.42H42.8
		c-0.27,0-0.49,0.19-0.54,0.43c-0.27,1.27-0.77,2.46-1.48,3.55c-0.14,0.22-0.11,0.5,0.08,0.7l1.34,1.33l-2.36,2.36l-1.34-1.34
		c-0.19-0.19-0.47-0.21-0.7-0.07c-1.08,0.71-2.27,1.2-3.54,1.47c-0.25,0.06-0.44,0.29-0.44,0.54v1.89h-3.34V32.4
		c0-0.26-0.19-0.48-0.44-0.54c-1.27-0.27-2.46-0.76-3.54-1.47c-0.22-0.14-0.51-0.12-0.7,0.07l-1.34,1.34l-2.36-2.36l1.34-1.34
		c0.19-0.19,0.22-0.47,0.08-0.69c-0.71-1.09-1.21-2.27-1.48-3.55c-0.05-0.25-0.28-0.43-0.54-0.43h-1.89v-3.35h1.89
		c0.27,0,0.49-0.19,0.54-0.44c0.27-1.27,0.77-2.46,1.48-3.54c0.14-0.22,0.11-0.51-0.08-0.7l-1.34-1.33l2.36-2.37l1.34,1.34
		c0.19,0.19,0.48,0.22,0.7,0.08c1.08-0.71,2.27-1.2,3.54-1.48c0.26-0.05,0.44-0.28,0.44-0.53V9.2h3.34v1.9
		c0,0.26,0.2,0.48,0.44,0.53c1.27,0.28,2.46,0.77,3.54,1.48c0.23,0.14,0.51,0.11,0.7-0.08l1.34-1.34l2.36,2.37l-1.34,1.33
		c-0.19,0.19-0.22,0.48-0.07,0.7c0.7,1.08,1.2,2.27,1.47,3.54c0.05,0.26,0.28,0.44,0.54,0.44h1.89V23.42z"></path><path fill="#4fa4d1" d="M42.8,20.08c-0.27,0-0.49-0.19-0.54-0.44c-0.27-1.27-0.77-2.46-1.47-3.54c-0.15-0.22-0.12-0.51,0.07-0.7
		l1.34-1.33l-2.36-2.37l-1.34,1.34c-0.19,0.19-0.47,0.22-0.7,0.08c-1.08-0.71-2.27-1.2-3.54-1.48c-0.25-0.05-0.44-0.28-0.44-0.53
		V9.2h-3.34v1.9c0,0.26-0.19,0.48-0.44,0.53c-1.27,0.28-2.46,0.77-3.54,1.48c-0.22,0.14-0.51,0.11-0.7-0.08l-1.34-1.34l-2.36,2.37
		l1.34,1.33c0.19,0.19,0.22,0.48,0.08,0.7c-0.71,1.08-1.21,2.27-1.48,3.54c-0.05,0.26-0.28,0.44-0.54,0.44h-1.89v3.35h1.89
		c0.27,0,0.49,0.19,0.54,0.43c0.27,1.28,0.77,2.46,1.48,3.55c0.14,0.22,0.11,0.5-0.08,0.69l-1.34,1.34l2.36,2.36l1.34-1.34
		c0.19-0.19,0.48-0.21,0.7-0.07c1.08,0.71,2.27,1.2,3.54,1.47c0.26,0.06,0.44,0.29,0.44,0.54v1.89h3.34V32.4
		c0-0.26,0.2-0.48,0.44-0.54c1.27-0.27,2.46-0.76,3.54-1.47c0.23-0.14,0.51-0.12,0.7,0.07l1.34,1.34l2.36-2.36l-1.34-1.33
		c-0.19-0.2-0.22-0.48-0.08-0.7c0.71-1.09,1.21-2.28,1.48-3.55c0.05-0.25,0.28-0.43,0.54-0.43h1.89v-3.35H42.8z M32.15,30.77
		c-4.98,0-9.03-4.05-9.03-9.02s4.05-9.03,9.03-9.03c4.97,0,9.02,4.06,9.02,9.03S37.12,30.77,32.15,30.77z"></path><path d="M32.15,11.74c-5.52,0-10.01,4.49-10.01,10.01c0,5.51,4.49,10,10.01,10c5.51,0,10-4.49,10-10
		C42.15,16.23,37.66,11.74,32.15,11.74z M32.15,30.77c-4.98,0-9.03-4.05-9.03-9.02s4.05-9.03,9.03-9.03c4.97,0,9.02,4.06,9.02,9.03
		S37.12,30.77,32.15,30.77z"></path><path fill="#dbe2eb" d="M32.15,13.16c-4.74,0-8.59,3.85-8.59,8.59c0,4.73,3.85,8.58,8.59,8.58c4.73,0,8.58-3.85,8.58-8.58
		C40.72,17.01,36.87,13.16,32.15,13.16z M26.58,16.74c-0.09-0.27,0.05-0.54,0.31-0.63l1.42-0.5c0.16-0.06,0.32-0.03,0.45,0.06
		c0.13,0.09,0.21,0.25,0.21,0.4v4.67c0,0.27-0.22,0.49-0.49,0.49s-0.49-0.23-0.49-0.49v-3.98l-0.77,0.28
		C26.96,17.12,26.68,16.98,26.58,16.74z M29.38,28.08c-1.33,0-2.42-1.3-2.42-2.9c0-1.6,1.09-2.9,2.42-2.9c1.33,0,2.42,1.31,2.42,2.9
		C31.8,26.78,30.71,28.08,29.38,28.08z M34.41,27.51c0,0.28-0.22,0.49-0.49,0.49c-0.28,0-0.49-0.22-0.49-0.49v-3.97l-0.77,0.27
		c-0.26,0.1-0.54-0.04-0.63-0.3c-0.09-0.26,0.05-0.54,0.31-0.63l1.42-0.5c0.16-0.05,0.32-0.03,0.45,0.06
		c0.13,0.1,0.21,0.25,0.21,0.4V27.51z M32.49,21.23c-1.33,0-2.41-1.31-2.41-2.9c0-1.6,1.08-2.9,2.41-2.9c1.34,0,2.42,1.3,2.42,2.9
		C34.91,19.92,33.83,21.23,32.49,21.23z M37.73,27.51c0,0.28-0.23,0.49-0.49,0.49c-0.28,0-0.49-0.22-0.49-0.49v-3.97l-0.77,0.27
		c-0.26,0.1-0.54-0.04-0.63-0.3s0.04-0.54,0.3-0.63l1.43-0.5c0.15-0.05,0.32-0.03,0.45,0.06c0.13,0.1,0.21,0.25,0.21,0.4V27.51z
		 M37.73,20.74c0,0.27-0.23,0.49-0.49,0.49c-0.28,0-0.49-0.23-0.49-0.49v-3.98l-0.77,0.28c-0.26,0.09-0.54-0.05-0.63-0.3
		c-0.09-0.27,0.04-0.54,0.3-0.63l1.43-0.5c0.15-0.06,0.32-0.03,0.45,0.06c0.13,0.09,0.21,0.25,0.21,0.4V20.74z"></path><path fill="#dbe2eb" d="M32.15,12.72c-4.98,0-9.03,4.06-9.03,9.03s4.05,9.02,9.03,9.02c4.97,0,9.02-4.05,9.02-9.02
		S37.12,12.72,32.15,12.72z M32.15,30.33c-4.74,0-8.59-3.85-8.59-8.58c0-4.74,3.85-8.59,8.59-8.59c4.73,0,8.58,3.85,8.58,8.59
		C40.72,26.48,36.87,30.33,32.15,30.33z"></path><path fill="#dbe2eb" d="M33.93,18.32c0,1.05-0.64,1.92-1.44,1.92c-0.79,0-1.43-0.87-1.43-1.92c0-1.06,0.64-1.92,1.43-1.92
		C33.29,16.4,33.93,17.26,33.93,18.32z"></path></svg>