<svg data-v-fde0c5aa="" xmlns="http://www.w3.org/2000/svg" viewBox="0 0 300 300" class="font"><!----><defs data-v-fde0c5aa=""><!----></defs><rect data-v-fde0c5aa="" fill="transparent" x="0" y="0" width="300px" height="300px" class="logo-background-square"></rect><defs data-v-fde0c5aa=""><linearGradient data-v-fde0c5aa="" gradientTransform="rotate(25)" id="3fb2f329-332a-43cd-a6b3-a71764f94fc7" x1="0%" y1="0%" x2="100%" y2="0%"><stop data-v-fde0c5aa="" offset="0%" stop-color="#E0302F" stop-opacity="1"></stop><stop data-v-fde0c5aa="" offset="100%" stop-color="#3281DD" stop-opacity="1"></stop></linearGradient></defs><g data-v-fde0c5aa="" id="fd35ebfa-4e5a-428b-b224-9ed12756c605" fill="url(#3fb2f329-332a-43cd-a6b3-a71764f94fc7)" transform="matrix(8.166295309529614,0,0,8.166295309529614,35.10022261958257,-19.4506276727395)"><path d="M14.83 25.55L14.48 26.25L9.94 26.25L9.94 25.68L11.26 24.64L11.26 17.30L7.62 26.25L6.68 26.25L3.04 17.25L3.04 24.86L4.54 25.55L4.19 26.25L0.77 26.25L0.77 25.68L2.09 24.64L2.09 16.66L0.60 15.95L0.95 15.25L4.34 15.25L7.71 23.65L11.07 15.25L14.64 15.25L14.64 15.82L13.31 16.86L13.31 25.09L14.83 25.55ZM19.57 25.07L21.07 25.55L20.72 26.25L16.18 26.25L16.18 25.68L17.50 24.61L17.50 16.41L16.02 15.95L16.37 15.25L20.90 15.25L20.90 15.82L19.57 16.88L19.57 25.07ZM27.54 25.55L27.19 26.25L24.47 26.25L20.27 20.73L24.49 17.05L22.85 15.95L23.20 15.25L27.13 15.25L27.13 15.82L22.29 20.06L25.96 24.79L27.54 25.55Z"></path></g><!----><!----></svg>