<svg xmlns="http://www.w3.org/2000/svg" enable-background="new 0 0 64 64" viewBox="0 0 64 64" id="engineer-app"><circle cx="32" cy="32" r="32" fill="#ff576b"></circle><path fill="#0e4275" d="M42.99,62H13.53c-1.6,0-2.89-1.29-2.89-2.89V10.7c0-1.6,1.29-2.89,2.89-2.89h29.46
						c1.6,0,2.89,1.29,2.89,2.89v48.4C45.88,60.71,44.59,62,42.99,62z"></path><rect width="28.1" height="38.94" x="14.21" y="14.46" fill="#4bc8f1"></rect><rect width="7.74" height="1.14" x="24.39" y="10.57" fill="#e5e8ea"></rect><path fill="#e5e8ea" d="M31.02,57.78c0,1.53-1.24,2.76-2.76,2.76c-1.53,0-2.76-1.24-2.76-2.76c0-1.53,1.24-2.76,2.76-2.76
				C29.78,55.02,31.02,56.26,31.02,57.78z"></path><path fill="#0e4275" d="M30.36,57.78c0,1.16-0.94,2.1-2.1,2.1c-1.16,0-2.1-0.94-2.1-2.1c0-1.16,0.94-2.1,2.1-2.1
				C29.42,55.69,30.36,56.62,30.36,57.78z"></path><path fill="#e8eae7" d="M33.86,35.77c-0.11,0-0.21-0.04-0.29-0.12l-5.31-5.42l-5.31,5.42c-0.16,0.16-0.41,0.16-0.58,0.01
				c-0.16-0.16-0.16-0.41-0.01-0.58l5.6-5.72c0.15-0.16,0.43-0.16,0.58,0l5.6,5.72c0.16,0.16,0.15,0.42-0.01,0.58
				C34.07,35.73,33.97,35.77,33.86,35.77z"></path><path fill="#e8eae7" d="M32.68,40.57h-8.84c-0.22,0-0.41-0.18-0.41-0.41v-6c0-0.22,0.18-0.41,0.41-0.41s0.41,0.18,0.41,0.41v5.6
				h8.02v-5.6c0-0.22,0.18-0.41,0.41-0.41c0.22,0,0.41,0.18,0.41,0.41v6C33.08,40.39,32.9,40.57,32.68,40.57z"></path><path fill="#e8eae7" d="M29.82 40.57c-.22 0-.41-.18-.41-.41v-3.49h-2.31v3.49c0 .22-.18.41-.41.41-.22 0-.41-.18-.41-.41v-3.9c0-.22.18-.41.41-.41h3.12c.22 0 .41.18.41.41v3.9C30.23 40.39 30.04 40.57 29.82 40.57zM24.85 33.54c-.22 0-.41-.18-.41-.41v-2.01c0-.22.18-.41.41-.41.23 0 .41.18.41.41v2.01C25.25 33.35 25.07 33.54 24.85 33.54z"></path><g><rect width="1.31" height="17.77" x="35.54" y="25.49" fill="#e8eae7"></rect><rect width="1.31" height="17.77" x="19.67" y="25.49" fill="#e8eae7"></rect><rect width="18.16" height="1.31" x="20.33" y="24.84" fill="#e8eae7"></rect><path fill="#00dcab" d="M36.21,28.33h-0.02c-1.57,0-2.83-1.27-2.83-2.84v-0.02c0-1.57,1.27-2.83,2.83-2.83h0.02
						c1.57,0,2.83,1.27,2.83,2.83v0.02C39.04,27.06,37.77,28.33,36.21,28.33z"></path><rect width="5.69" height="5.69" x="17.48" y="22.64" fill="#faa951"></rect><rect width="18.71" height="1.31" x="20.33" y="42.6" fill="#e8eae7"></rect><rect width="5.69" height="5.69" x="33.35" y="40.41" fill="#faa951"></rect><path fill="#00dcab" d="M20.33,46.1h-0.02c-1.57,0-2.83-1.27-2.83-2.84v-0.02c0-1.57,1.27-2.84,2.83-2.84h0.02
						c1.57,0,2.84,1.27,2.84,2.84v0.02C23.16,44.83,21.9,46.1,20.33,46.1z"></path></g><g><path fill="#e5e8ea" d="M49.15,15.32c-2,2.72-5.83,3.31-8.55,1.31c-2.72-2-3.31-5.83-1.31-8.55s5.83-3.31,8.55-1.31
			C50.57,8.77,51.15,12.6,49.15,15.32z"></path><path fill="#2c2536" d="M55.22,16.06l-2.27-1.63c0.52-1.65,0.57-3.45,0.09-5.17l2.31-1.54L53.5,4.36L50.97,5.5
					c-1.21-1.32-2.76-2.23-4.44-2.66l-0.18-2.77L42.5,0l-0.28,2.76c-0.83,0.18-1.66,0.49-2.44,0.93c-0.79,0.44-1.48,0.98-2.09,1.58
					l-2.48-1.22l-1.98,3.29l2.25,1.62c-0.53,1.65-0.57,3.45-0.09,5.17l-2.31,1.55l1.87,3.36l2.53-1.14
					c1.21,1.31,2.76,2.22,4.43,2.66l0.19,2.78l3.84,0.07l0.28-2.77c0.84-0.18,1.66-0.49,2.45-0.92c0.78-0.43,1.48-0.97,2.07-1.58
					l2.5,1.23L55.22,16.06z M46.93,16.58c-2.7,1.5-6.1,0.52-7.59-2.17c-1.49-2.69-0.53-6.09,2.17-7.59C44.21,5.33,47.6,6.3,49.1,9
					C50.59,11.69,49.62,15.09,46.93,16.58z"></path></g></svg>